
<svg xmlns="http://www.w3.org/2000/svg" xmlns:xlink="http://www.w3.org/1999/xlink" width="2000" height="2000" viewBox="0 0 2000 2000">
  <path fill-rule="evenodd" fill="rgb(83.201599%, 96.484375%, 92.576599%)" fill-opacity="1" d="M 0 0.078125 L 1999.921875 0.078125 L 1999.921875 2000 L 0 2000 L 0 0.078125 "/>
  <path fill-rule="evenodd" fill="rgb(83.201599%, 96.484375%, 92.576599%)" fill-opacity="1" d="M 1908.238281 1915.15625 L 1889.179688 1915.15625 C 1888.300781 1915.15625 1887.589844 1915.871094 1887.589844 1916.746094 L 1887.589844 1935.800781 C 1887.589844 1936.679688 1888.300781 1937.394531 1889.179688 1937.394531 L 1908.238281 1937.394531 C 1909.109375 1937.394531 1909.828125 1936.679688 1909.828125 1935.800781 L 1909.828125 1916.746094 C 1909.828125 1915.871094 1909.109375 1915.15625 1908.238281 1915.15625 "/>
  <path fill-rule="evenodd" fill="rgb(83.201599%, 96.484375%, 92.576599%)" fill-opacity="1" d="M 1865.28125 1916.171875 L 1847.089844 1916.171875 C 1846.261719 1916.171875 1845.578125 1916.855469 1845.578125 1917.691406 L 1845.578125 1935.875 C 1845.578125 1936.710938 1846.261719 1937.394531 1847.089844 1937.394531 L 1865.28125 1937.394531 C 1866.109375 1937.394531 1866.800781 1936.710938 1866.800781 1935.875 L 1866.800781 1917.691406 C 1866.800781 1916.855469 1866.109375 1916.171875 1865.28125 1916.171875 "/>
  <path fill-rule="evenodd" fill="rgb(83.201599%, 96.484375%, 92.576599%)" fill-opacity="1" d="M 1822.320312 1917.1875 L 1805.011719 1917.1875 C 1804.210938 1917.1875 1803.558594 1917.839844 1803.558594 1918.636719 L 1803.558594 1935.949219 C 1803.558594 1936.742188 1804.210938 1937.394531 1805.011719 1937.394531 L 1822.320312 1937.394531 C 1823.121094 1937.394531 1823.769531 1936.742188 1823.769531 1935.949219 L 1823.769531 1918.636719 C 1823.769531 1917.839844 1823.121094 1917.1875 1822.320312 1917.1875 "/>
  <path fill-rule="evenodd" fill="rgb(83.201599%, 96.484375%, 92.576599%)" fill-opacity="1" d="M 1779.371094 1918.207031 L 1762.929688 1918.207031 C 1762.171875 1918.207031 1761.550781 1918.824219 1761.550781 1919.582031 L 1761.550781 1936.019531 C 1761.550781 1936.777344 1762.171875 1937.394531 1762.929688 1937.394531 L 1779.371094 1937.394531 C 1780.121094 1937.394531 1780.738281 1936.777344 1780.738281 1936.019531 L 1780.738281 1919.582031 C 1780.738281 1918.824219 1780.121094 1918.207031 1779.371094 1918.207031 "/>
  <path fill-rule="evenodd" fill="rgb(83.201599%, 96.484375%, 92.576599%)" fill-opacity="1" d="M 1736.410156 1919.222656 L 1720.839844 1919.222656 C 1720.128906 1919.222656 1719.539062 1919.808594 1719.539062 1920.523438 L 1719.539062 1936.09375 C 1719.539062 1936.808594 1720.128906 1937.394531 1720.839844 1937.394531 L 1736.410156 1937.394531 C 1737.128906 1937.394531 1737.710938 1936.808594 1737.710938 1936.09375 L 1737.710938 1920.523438 C 1737.710938 1919.808594 1737.128906 1919.222656 1736.410156 1919.222656 "/>
  <path fill-rule="evenodd" fill="rgb(83.201599%, 96.484375%, 92.576599%)" fill-opacity="1" d="M 1693.460938 1920.238281 L 1678.761719 1920.238281 C 1678.078125 1920.238281 1677.53125 1920.792969 1677.53125 1921.46875 L 1677.53125 1936.167969 C 1677.53125 1936.84375 1678.078125 1937.394531 1678.761719 1937.394531 L 1693.460938 1937.394531 C 1694.128906 1937.394531 1694.679688 1936.84375 1694.679688 1936.167969 L 1694.679688 1921.46875 C 1694.679688 1920.792969 1694.128906 1920.238281 1693.460938 1920.238281 "/>
  <path fill-rule="evenodd" fill="rgb(83.201599%, 96.484375%, 92.576599%)" fill-opacity="1" d="M 1650.5 1921.257812 L 1636.671875 1921.257812 C 1636.039062 1921.257812 1635.519531 1921.777344 1635.519531 1922.414062 L 1635.519531 1936.238281 C 1635.519531 1936.875 1636.039062 1937.394531 1636.671875 1937.394531 L 1650.5 1937.394531 C 1651.140625 1937.394531 1651.648438 1936.875 1651.648438 1936.238281 L 1651.648438 1922.414062 C 1651.648438 1921.777344 1651.140625 1921.257812 1650.5 1921.257812 "/>
  <path fill-rule="evenodd" fill="rgb(83.201599%, 96.484375%, 92.576599%)" fill-opacity="1" d="M 1607.539062 1922.273438 L 1594.589844 1922.273438 C 1593.988281 1922.273438 1593.511719 1922.761719 1593.511719 1923.355469 L 1593.511719 1936.3125 C 1593.511719 1936.90625 1593.988281 1937.394531 1594.589844 1937.394531 L 1607.539062 1937.394531 C 1608.140625 1937.394531 1608.628906 1936.90625 1608.628906 1936.3125 L 1608.628906 1923.355469 C 1608.628906 1922.761719 1608.140625 1922.273438 1607.539062 1922.273438 "/>
  <path fill-rule="evenodd" fill="rgb(83.201599%, 96.484375%, 92.576599%)" fill-opacity="1" d="M 1564.589844 1923.292969 L 1552.5 1923.292969 C 1551.949219 1923.292969 1551.488281 1923.746094 1551.488281 1924.300781 L 1551.488281 1936.386719 C 1551.488281 1936.941406 1551.949219 1937.394531 1552.5 1937.394531 L 1564.589844 1937.394531 C 1565.140625 1937.394531 1565.601562 1936.941406 1565.601562 1936.386719 L 1565.601562 1924.300781 C 1565.601562 1923.746094 1565.140625 1923.292969 1564.589844 1923.292969 "/>
  <path fill="none" stroke-width="359.997" stroke-linecap="round" stroke-linejoin="round" stroke="rgb(29.417419%, 14.892578%, 26.268005%)" stroke-opacity="1" stroke-miterlimit="2.61313" d="M 4230.742188 16966.289062 L 4491.054688 17937.8125 " transform="matrix(0.1, 0, 0, -0.1, 0, 2000)"/>
  <path fill="none" stroke-width="359.997" stroke-linecap="round" stroke-linejoin="round" stroke="rgb(29.417419%, 14.892578%, 26.268005%)" stroke-opacity="1" stroke-miterlimit="2.61313" d="M 3875.15625 17582.1875 L 4846.640625 17321.914062 " transform="matrix(0.1, 0, 0, -0.1, 0, 2000)"/>
  <path fill="none" stroke-width="159.996" stroke-linecap="round" stroke-linejoin="round" stroke="rgb(29.417419%, 14.892578%, 26.268005%)" stroke-opacity="1" stroke-miterlimit="2.61313" d="M 2894.179688 16440.703125 L 3244.257812 16642.8125 " transform="matrix(0.1, 0, 0, -0.1, 0, 2000)"/>
  <path fill="none" stroke-width="159.996" stroke-linecap="round" stroke-linejoin="round" stroke="rgb(29.417419%, 14.892578%, 26.268005%)" stroke-opacity="1" stroke-miterlimit="2.61313" d="M 2968.164062 16716.71875 L 3170.273438 16366.71875 " transform="matrix(0.1, 0, 0, -0.1, 0, 2000)"/>
  <path fill="none" stroke-width="239.995" stroke-linecap="round" stroke-linejoin="round" stroke="rgb(29.417419%, 14.892578%, 26.268005%)" stroke-opacity="1" stroke-miterlimit="2.61313" d="M 5206.132812 18012.8125 L 5199.726562 18014.492188 " transform="matrix(0.1, 0, 0, -0.1, 0, 2000)"/>
  <path fill="none" stroke-width="159.999" stroke-linecap="round" stroke-linejoin="round" stroke="rgb(29.417419%, 14.892578%, 26.268005%)" stroke-opacity="1" stroke-miterlimit="2.61313" d="M 3941.445312 17116.09375 L 3935.039062 17117.8125 " transform="matrix(0.1, 0, 0, -0.1, 0, 2000)"/>
  <path fill="none" stroke-width="384.432" stroke-linecap="round" stroke-linejoin="round" stroke="rgb(29.417419%, 14.892578%, 26.268005%)" stroke-opacity="1" stroke-miterlimit="2.61313" d="M 14533.90625 3237.265625 L 14543.789062 3241.015625 " transform="matrix(0.1, 0, 0, -0.1, 0, 2000)"/>
  <path fill="none" stroke-width="384.435" stroke-linecap="round" stroke-linejoin="round" stroke="rgb(29.417419%, 14.892578%, 26.268005%)" stroke-opacity="1" stroke-miterlimit="2.61313" d="M 14514.609375 2280.195312 C 14580.507812 2104.804688 14491.71875 1909.257812 14316.289062 1843.398438 C 14141.015625 1777.539062 13945.390625 1866.289062 13879.609375 2041.640625 C 13813.710938 2216.992188 13902.5 2412.578125 14077.8125 2478.4375 C 14253.203125 2544.296875 14448.710938 2455.546875 14514.609375 2280.195312 Z M 14514.609375 2280.195312 " transform="matrix(0.1, 0, 0, -0.1, 0, 2000)"/>
  <path fill-rule="evenodd" fill="rgb(29.417419%, 14.892578%, 26.268005%)" fill-opacity="1" d="M 1617.371094 1591.089844 C 1620.710938 1599.976562 1616.210938 1609.882812 1607.320312 1613.21875 C 1598.441406 1616.558594 1588.53125 1612.058594 1585.191406 1603.175781 C 1581.859375 1594.289062 1586.351562 1584.382812 1595.238281 1581.046875 C 1604.121094 1577.710938 1614.03125 1582.207031 1617.371094 1591.089844 "/>
  <path fill="none" stroke-width="384.438" stroke-linecap="round" stroke-linejoin="round" stroke="rgb(29.417419%, 14.892578%, 26.268005%)" stroke-opacity="1" stroke-miterlimit="2.61313" d="M 16173.710938 4089.101562 C 16207.109375 4000.234375 16162.109375 3901.171875 16073.203125 3867.8125 C 15984.414062 3834.414062 15885.3125 3879.414062 15851.914062 3968.242188 C 15818.59375 4057.109375 15863.515625 4156.171875 15952.382812 4189.53125 C 16041.210938 4222.890625 16140.3125 4177.929688 16173.710938 4089.101562 Z M 16173.710938 4089.101562 " transform="matrix(0.1, 0, 0, -0.1, 0, 2000)"/>
  <path fill-rule="nonzero" fill="rgb(92.96875%, 79.296875%, 47.851562%)" fill-opacity="1" d="M 436.113281 1572.613281 C 414.132812 1553.59375 411.734375 1520.355469 430.753906 1498.375 C 449.773438 1476.394531 483.007812 1473.996094 504.988281 1493.015625 C 568.421875 1547.757812 641.582031 1591.464844 721.496094 1621.160156 C 796.203125 1648.921875 877.253906 1664.414062 962.242188 1665.1875 L 962.242188 1770.769531 C 865.117188 1769.980469 771.664062 1752.015625 684.789062 1719.730469 C 592.910156 1685.589844 508.882812 1635.410156 436.113281 1572.613281 "/>
  <path fill-rule="evenodd" fill="rgb(89.0625%, 71.289062%, 82.03125%)" fill-opacity="1" d="M 962.242188 1665.1875 C 877.253906 1664.414062 796.203125 1648.921875 721.496094 1621.160156 C 678.175781 1605.066406 636.84375 1584.847656 597.964844 1560.988281 L 597.964844 1255.707031 L 962.242188 1255.707031 L 962.242188 1665.1875 "/>
  <path fill-rule="evenodd" fill="rgb(94.921875%, 87.5%, 82.03125%)" fill-opacity="1" d="M 962.242188 1113.925781 L 597.964844 1113.925781 L 597.964844 481.949219 L 962.242188 481.949219 L 962.242188 1113.925781 "/>
  <path fill-rule="evenodd" fill="rgb(95.3125%, 92.96875%, 48.631287%)" fill-opacity="1" d="M 562.542969 1113.925781 L 962.242188 1113.925781 L 962.242188 1255.707031 L 562.542969 1255.707031 C 545.949219 1255.707031 532.375 1242.132812 532.375 1225.542969 L 532.375 1144.09375 C 532.375 1127.503906 545.949219 1113.925781 562.542969 1113.925781 "/>
  <path fill-rule="evenodd" fill="rgb(89.0625%, 71.289062%, 82.03125%)" fill-opacity="1" d="M 562.542969 316.28125 L 962.242188 316.28125 L 962.242188 481.949219 L 562.542969 481.949219 C 545.949219 481.949219 532.375 468.371094 532.375 451.78125 L 532.375 346.441406 C 532.375 329.851562 545.949219 316.28125 562.542969 316.28125 "/>
  <path fill-rule="evenodd" fill="rgb(63.084412%, 52.146912%, 52.146912%)" fill-opacity="1" d="M 785.613281 1316.039062 C 837.046875 1316.039062 879.128906 1358.121094 879.128906 1409.554688 L 879.128906 1659.65625 C 824.230469 1652.796875 771.445312 1639.722656 721.496094 1621.160156 C 711.59375 1617.480469 701.792969 1613.585938 692.101562 1609.480469 L 692.101562 1409.554688 C 692.101562 1358.121094 734.183594 1316.039062 785.613281 1316.039062 "/>
  <path fill-rule="evenodd" fill="rgb(63.084412%, 52.146912%, 52.146912%)" fill-opacity="1" d="M 655.300781 558.871094 L 718.652344 558.871094 L 718.652344 656.910156 L 655.300781 656.910156 Z M 655.300781 938.960938 L 718.652344 938.960938 L 718.652344 1037.003906 L 655.300781 1037.003906 Z M 875.515625 938.960938 L 938.863281 938.960938 L 938.863281 1037.003906 L 875.515625 1037.003906 Z M 765.40625 938.960938 L 828.757812 938.960938 L 828.757812 1037.003906 L 765.40625 1037.003906 Z M 655.300781 748.921875 L 718.652344 748.921875 L 718.652344 846.960938 L 655.300781 846.960938 Z M 875.515625 748.921875 L 938.863281 748.921875 L 938.863281 846.960938 L 875.515625 846.960938 Z M 765.40625 748.921875 L 828.757812 748.921875 L 828.757812 846.960938 L 765.40625 846.960938 Z M 875.515625 558.871094 L 938.863281 558.871094 L 938.863281 656.910156 L 875.515625 656.910156 Z M 765.40625 558.871094 L 828.757812 558.871094 L 828.757812 656.910156 L 765.40625 656.910156 L 765.40625 558.871094 "/>
  <path fill-rule="nonzero" fill="rgb(92.1875%, 74.414062%, 35.693359%)" fill-opacity="1" d="M 962.242188 1665.1875 C 964.46875 1665.207031 966.699219 1665.21875 968.933594 1665.21875 C 1053.558594 1665.21875 1134.308594 1650.660156 1208.839844 1623.933594 C 1286.511719 1596.078125 1357.980469 1555.019531 1420.558594 1503.445312 C 1443 1484.996094 1476.140625 1488.226562 1494.589844 1510.664062 C 1513.039062 1533.101562 1509.808594 1566.246094 1487.371094 1584.695312 C 1415.671875 1643.78125 1333.621094 1690.882812 1244.300781 1722.914062 C 1157.871094 1753.910156 1065.140625 1770.800781 968.933594 1770.800781 C 966.699219 1770.800781 964.472656 1770.789062 962.242188 1770.769531 L 962.242188 1665.1875 "/>
  <path fill-rule="evenodd" fill="rgb(85.15625%, 58.006287%, 73.631287%)" fill-opacity="1" d="M 1326.519531 1255.707031 L 1326.519531 1569.023438 C 1289.289062 1590.757812 1249.929688 1609.195312 1208.839844 1623.933594 C 1134.308594 1650.660156 1053.558594 1665.21875 968.933594 1665.21875 C 966.699219 1665.21875 964.46875 1665.207031 962.242188 1665.1875 L 962.242188 1255.707031 L 1326.519531 1255.707031 "/>
  <path fill-rule="evenodd" fill="rgb(94.139099%, 79.296875%, 68.943787%)" fill-opacity="1" d="M 1326.519531 481.949219 L 1326.519531 1113.925781 L 962.242188 1113.925781 L 962.242188 481.949219 L 1326.519531 481.949219 "/>
  <path fill-rule="evenodd" fill="rgb(92.96875%, 89.451599%, 35.276794%)" fill-opacity="1" d="M 962.242188 1113.925781 L 1361.941406 1113.925781 C 1378.53125 1113.925781 1392.109375 1127.503906 1392.109375 1144.09375 L 1392.109375 1225.542969 C 1392.109375 1242.132812 1378.53125 1255.707031 1361.941406 1255.707031 L 962.242188 1255.707031 L 962.242188 1113.925781 "/>
  <path fill-rule="evenodd" fill="rgb(85.15625%, 58.006287%, 73.631287%)" fill-opacity="1" d="M 962.242188 316.28125 L 1361.941406 316.28125 C 1378.53125 316.28125 1392.109375 329.851562 1392.109375 346.441406 L 1392.109375 451.78125 C 1392.109375 468.371094 1378.53125 481.949219 1361.941406 481.949219 L 962.242188 481.949219 L 962.242188 316.28125 "/>
  <path fill-rule="evenodd" fill="rgb(92.1875%, 74.414062%, 35.693359%)" fill-opacity="1" d="M 1326.519531 682.039062 L 1419.101562 682.039062 L 1419.101562 936.949219 L 1326.519531 936.949219 L 1326.519531 682.039062 "/>
  <path fill-rule="evenodd" fill="rgb(92.96875%, 89.451599%, 35.276794%)" fill-opacity="1" d="M 1453.789062 597.578125 L 1547.308594 597.578125 C 1566.390625 597.578125 1582 613.191406 1582 632.269531 L 1582 986.71875 C 1582 1005.800781 1566.390625 1021.410156 1547.308594 1021.410156 L 1453.789062 1021.410156 C 1434.710938 1021.410156 1419.101562 1005.800781 1419.101562 986.71875 L 1419.101562 632.269531 C 1419.101562 613.191406 1434.710938 597.578125 1453.789062 597.578125 "/>
  <path fill-rule="evenodd" fill="rgb(82.421875%, 82.421875%, 82.03125%)" fill-opacity="1" d="M 993.007812 1335.648438 L 1074.460938 1335.648438 C 1086.898438 1335.648438 1097.078125 1345.828125 1097.078125 1358.273438 L 1097.078125 1503.070312 C 1097.078125 1515.515625 1086.898438 1525.695312 1074.460938 1525.695312 L 993.007812 1525.695312 C 980.5625 1525.695312 970.382812 1515.515625 970.382812 1503.070312 L 970.382812 1358.273438 C 970.382812 1345.828125 980.5625 1335.648438 993.007812 1335.648438 "/>
  <path fill-rule="evenodd" fill="rgb(82.421875%, 82.421875%, 82.03125%)" fill-opacity="1" d="M 1119.699219 1335.648438 L 1201.148438 1335.648438 C 1213.601562 1335.648438 1223.78125 1345.828125 1223.78125 1358.273438 L 1223.78125 1503.070312 C 1223.78125 1515.515625 1213.601562 1525.695312 1201.148438 1525.695312 L 1119.699219 1525.695312 C 1107.261719 1525.695312 1097.078125 1515.515625 1097.078125 1503.070312 L 1097.078125 1358.273438 C 1097.078125 1345.828125 1107.261719 1335.648438 1119.699219 1335.648438 "/>
  <path fill-rule="evenodd" fill="rgb(53.318787%, 41.967773%, 41.967773%)" fill-opacity="1" d="M 1205.828125 938.960938 L 1269.179688 938.960938 L 1269.179688 1037.003906 L 1205.828125 1037.003906 Z M 1095.730469 938.960938 L 1159.078125 938.960938 L 1159.078125 1037.003906 L 1095.730469 1037.003906 Z M 985.621094 938.960938 L 1048.96875 938.960938 L 1048.96875 1037.003906 L 985.621094 1037.003906 Z M 1205.828125 748.921875 L 1269.179688 748.921875 L 1269.179688 846.960938 L 1205.828125 846.960938 Z M 1095.730469 748.921875 L 1159.078125 748.921875 L 1159.078125 846.960938 L 1095.730469 846.960938 Z M 985.621094 748.921875 L 1048.96875 748.921875 L 1048.96875 846.960938 L 985.621094 846.960938 Z M 1205.828125 558.871094 L 1269.179688 558.871094 L 1269.179688 656.910156 L 1205.828125 656.910156 Z M 1095.730469 558.871094 L 1159.078125 558.871094 L 1159.078125 656.910156 L 1095.730469 656.910156 Z M 985.621094 558.871094 L 1048.96875 558.871094 L 1048.96875 656.910156 L 985.621094 656.910156 L 985.621094 558.871094 "/>
  <path fill="none" stroke-width="389.999" stroke-linecap="round" stroke-linejoin="round" stroke="rgb(29.417419%, 15.281677%, 26.660156%)" stroke-opacity="1" stroke-miterlimit="2.61313" d="M 8851.40625 2015.273438 C 8035.9375 2065.273438 7250.15625 2236.25 6511.875 2510.585938 C 5593.085938 2852.03125 4752.773438 3353.789062 4025.117188 3981.796875 C 3805.3125 4171.992188 3781.328125 4504.335938 3971.523438 4724.140625 C 4161.71875 4943.945312 4494.0625 4967.96875 4713.90625 4777.773438 C 5348.203125 4230.351562 6079.804688 3793.242188 6878.945312 3496.289062 C 7645.625 3211.40625 8479.0625 3055.703125 9353.320312 3055.703125 C 10199.609375 3055.703125 11007.109375 3201.328125 11752.304688 3468.59375 C 12528.984375 3747.148438 13243.789062 4157.734375 13869.609375 4673.4375 C 14093.90625 4857.96875 14425.390625 4825.625 14609.882812 4601.289062 C 14794.414062 4376.914062 14762.109375 4045.46875 14537.695312 3860.976562 C 13820.703125 3270.078125 13000.195312 2799.0625 12106.992188 2478.789062 C 11353.398438 2208.515625 10551.992188 2045.507812 9721.40625 2008.164062 " transform="matrix(0.1, 0, 0, -0.1, 0, 2000)"/>
  <path fill="none" stroke-width="389.999" stroke-linecap="round" stroke-linejoin="round" stroke="rgb(29.417419%, 15.281677%, 26.660156%)" stroke-opacity="1" stroke-miterlimit="22.9256" d="M 5643.632812 5971.25 L 5643.632812 6001.914062 M 5643.632812 6537.070312 L 5643.632812 7150.820312 L 12929.21875 7150.820312 L 12929.21875 4017.65625 C 12556.914062 3800.3125 12163.28125 3615.976562 11752.304688 3468.59375 C 11007.109375 3201.328125 10199.609375 3055.703125 9353.320312 3055.703125 C 8479.0625 3055.703125 7645.625 3211.40625 6878.945312 3496.289062 C 6445.742188 3657.265625 6032.421875 3859.453125 5643.632812 4098.046875 L 5643.632812 5436.09375 " transform="matrix(0.1, 0, 0, -0.1, 0, 2000)"/>
  <path fill="none" stroke-width="389.999" stroke-linecap="round" stroke-linejoin="round" stroke="rgb(29.417419%, 15.281677%, 26.660156%)" stroke-opacity="1" stroke-miterlimit="22.9256" d="M 12929.21875 14888.398438 L 12929.21875 8568.632812 L 5643.632812 8568.632812 L 5643.632812 14888.398438 Z M 12929.21875 14888.398438 " transform="matrix(0.1, 0, 0, -0.1, 0, 2000)"/>
  <path fill="none" stroke-width="389.999" stroke-linecap="round" stroke-linejoin="round" stroke="rgb(29.417419%, 15.281677%, 26.660156%)" stroke-opacity="1" stroke-miterlimit="22.9256" d="M 5289.414062 8568.632812 L 13283.398438 8568.632812 C 13449.296875 8568.632812 13585.117188 8432.890625 13585.117188 8266.992188 L 13585.117188 7452.5 C 13585.117188 7286.5625 13449.296875 7150.820312 13283.398438 7150.820312 L 5289.414062 7150.820312 C 5123.476562 7150.820312 4987.734375 7286.5625 4987.734375 7452.5 L 4987.734375 8266.992188 C 4987.734375 8432.890625 5123.476562 8568.632812 5289.414062 8568.632812 Z M 5289.414062 8568.632812 " transform="matrix(0.1, 0, 0, -0.1, 0, 2000)"/>
  <path fill="none" stroke-width="389.999" stroke-linecap="round" stroke-linejoin="round" stroke="rgb(29.417419%, 15.281677%, 26.660156%)" stroke-opacity="1" stroke-miterlimit="22.9256" d="M 5289.414062 16545.117188 L 13283.398438 16545.117188 C 13449.296875 16545.117188 13585.117188 16409.414062 13585.117188 16243.515625 L 13585.117188 15190.117188 C 13585.117188 15024.21875 13449.296875 14888.398438 13283.398438 14888.398438 L 5289.414062 14888.398438 C 5123.476562 14888.398438 4987.734375 15024.21875 4987.734375 15190.117188 L 4987.734375 16243.515625 C 4987.734375 16409.414062 5123.476562 16545.117188 5289.414062 16545.117188 Z M 5289.414062 16545.117188 " transform="matrix(0.1, 0, 0, -0.1, 0, 2000)"/>
  <path fill="none" stroke-width="389.999" stroke-linecap="round" stroke-linejoin="round" stroke="rgb(29.417419%, 15.281677%, 26.660156%)" stroke-opacity="1" stroke-miterlimit="22.9256" d="M 12929.21875 12887.5 L 13855 12887.5 L 13855 10338.398438 L 12929.21875 10338.398438 Z M 12929.21875 12887.5 " transform="matrix(0.1, 0, 0, -0.1, 0, 2000)"/>
  <path fill="none" stroke-width="389.999" stroke-linecap="round" stroke-linejoin="round" stroke="rgb(29.417419%, 15.281677%, 26.660156%)" stroke-opacity="1" stroke-miterlimit="22.9256" d="M 15483.984375 12646.914062 L 15483.984375 12616.289062 M 15483.984375 12081.09375 L 15483.984375 9840.703125 C 15483.984375 9649.882812 15327.890625 9493.789062 15137.109375 9493.789062 L 14201.914062 9493.789062 C 14011.09375 9493.789062 13855 9649.882812 13855 9840.703125 L 13855 13385.195312 C 13855 13576.015625 14011.09375 13732.109375 14201.914062 13732.109375 L 15137.109375 13732.109375 C 15327.890625 13732.109375 15483.984375 13576.015625 15483.984375 13385.195312 L 15483.984375 13182.109375 " transform="matrix(0.1, 0, 0, -0.1, 0, 2000)"/>
  <path fill="none" stroke-width="389.999" stroke-linecap="round" stroke-linejoin="round" stroke="rgb(29.417419%, 15.281677%, 26.660156%)" stroke-opacity="1" stroke-miterlimit="22.9256" d="M 7520.117188 6547.5 L 7520.15625 6547.5 C 8034.453125 6547.5 8455.273438 6126.679688 8455.273438 5612.34375 L 8455.273438 3111.328125 C 7906.289062 3179.921875 7378.4375 3310.664062 6878.945312 3496.289062 C 6779.921875 3533.085938 6681.914062 3572.03125 6585 3613.125 L 6585 5612.34375 C 6585 6126.679688 7005.78125 6547.5 7520.117188 6547.5 Z M 7520.117188 6547.5 " transform="matrix(0.1, 0, 0, -0.1, 0, 2000)"/>
  <path fill="none" stroke-width="389.999" stroke-linecap="round" stroke-linejoin="round" stroke="rgb(29.417419%, 15.281677%, 26.660156%)" stroke-opacity="1" stroke-miterlimit="22.9256" d="M 9594.0625 6351.40625 L 10408.515625 6351.40625 C 10533.007812 6351.40625 10634.804688 6249.609375 10634.804688 6125.15625 L 10634.804688 4677.1875 C 10634.804688 4552.773438 10533.007812 4450.976562 10408.515625 4450.976562 L 9594.0625 4450.976562 C 9469.609375 4450.976562 9367.8125 4552.773438 9367.8125 4677.1875 L 9367.8125 6125.15625 C 9367.8125 6249.609375 9469.609375 6351.40625 9594.0625 6351.40625 Z M 9594.0625 6351.40625 " transform="matrix(0.1, 0, 0, -0.1, 0, 2000)"/>
  <path fill="none" stroke-width="389.999" stroke-linecap="round" stroke-linejoin="round" stroke="rgb(29.417419%, 15.281677%, 26.660156%)" stroke-opacity="1" stroke-miterlimit="22.9256" d="M 10861.015625 6351.40625 L 11675.507812 6351.40625 C 11800 6351.40625 11901.796875 6249.609375 11901.796875 6125.15625 L 11901.796875 4677.1875 C 11901.796875 4552.773438 11800 4450.976562 11675.507812 4450.976562 L 10861.015625 4450.976562 C 10736.601562 4450.976562 10634.804688 4552.773438 10634.804688 4677.1875 L 10634.804688 6125.15625 C 10634.804688 6249.609375 10736.601562 6351.40625 10861.015625 6351.40625 Z M 10861.015625 6351.40625 " transform="matrix(0.1, 0, 0, -0.1, 0, 2000)"/>
  <path fill="none" stroke-width="389.999" stroke-linecap="round" stroke-linejoin="round" stroke="rgb(29.417419%, 15.281677%, 26.660156%)" stroke-opacity="1" stroke-miterlimit="22.9256" d="M 6216.992188 14119.21875 L 6850.507812 14119.21875 L 6850.507812 13138.789062 L 6216.992188 13138.789062 Z M 6216.992188 10318.28125 L 6850.507812 10318.28125 L 6850.507812 9337.851562 L 6216.992188 9337.851562 Z M 11722.304688 10318.28125 L 12355.78125 10318.28125 L 12355.78125 9337.851562 L 11722.304688 9337.851562 Z M 10621.289062 10318.28125 L 11254.6875 10318.28125 L 11254.6875 9337.851562 L 10621.289062 9337.851562 Z M 9520.195312 10318.28125 L 10153.710938 10318.28125 L 10153.710938 9337.851562 L 9520.195312 9337.851562 Z M 8419.140625 10318.28125 L 9052.617188 10318.28125 L 9052.617188 9337.851562 L 8419.140625 9337.851562 Z M 7318.085938 10318.28125 L 7951.5625 10318.28125 L 7951.5625 9337.851562 L 7318.085938 9337.851562 Z M 6216.992188 12218.710938 L 6850.507812 12218.710938 L 6850.507812 11238.28125 L 6216.992188 11238.28125 Z M 11722.304688 12218.710938 L 12355.78125 12218.710938 L 12355.78125 11238.28125 L 11722.304688 11238.28125 Z M 10621.289062 12218.710938 L 11254.6875 12218.710938 L 11254.6875 11238.28125 L 10621.289062 11238.28125 Z M 9520.195312 12218.710938 L 10153.710938 12218.710938 L 10153.710938 11238.28125 L 9520.195312 11238.28125 Z M 8419.140625 12218.710938 L 9052.617188 12218.710938 L 9052.617188 11238.28125 L 8419.140625 11238.28125 Z M 7318.085938 12218.710938 L 7951.5625 12218.710938 L 7951.5625 11238.28125 L 7318.085938 11238.28125 Z M 11722.304688 14119.21875 L 12355.78125 14119.21875 L 12355.78125 13138.789062 L 11722.304688 13138.789062 Z M 10621.289062 14119.21875 L 11254.6875 14119.21875 L 11254.6875 13138.789062 L 10621.289062 13138.789062 Z M 9520.195312 14119.21875 L 10153.710938 14119.21875 L 10153.710938 13138.789062 L 9520.195312 13138.789062 Z M 8419.140625 14119.21875 L 9052.617188 14119.21875 L 9052.617188 13138.789062 L 8419.140625 13138.789062 Z M 7318.085938 14119.21875 L 7951.5625 14119.21875 L 7951.5625 13138.789062 L 7318.085938 13138.789062 Z M 7318.085938 14119.21875 " transform="matrix(0.1, 0, 0, -0.1, 0, 2000)"/>
</svg>
